<svg xmlns="http://www.w3.org/2000/svg" width="3024" height="1488" viewBox="0 0 2268 1116"><defs><clipPath id="a"><path d="M1373.926 524H1571v316.352h-197.074Zm0 0"/></clipPath><clipPath id="b"><path d="M1668.063 523.852h316.5v316.5h-316.5Zm0 0"/></clipPath><clipPath id="c"><path d="M283.086 524H736v19H283.086Zm0 0"/></clipPath><clipPath id="d"><path d="M427 818h164v22.352H427Zm0 0"/></clipPath><clipPath id="e"><path d="M283.086 772H736v19H283.086Zm0 0"/></clipPath><clipPath id="f"><path d="M283.086 524H302v267h-18.914Zm0 0"/></clipPath><clipPath id="g"><path d="M0 0h1672v190H0z"/></clipPath></defs><path fill="#fff" d="M-226.8-111.6h2721.6v1339.2H-226.8z"/><path fill="#2c3e50" d="M-226.8-111.6h2721.6v1339.2H-226.8z"/><g clip-path="url(#a)"><path fill="#e67e22" d="M1492.465 788.406h-39.23v27.426q-30.856 1.996-61.801 10.273v14.098h161.918v-14.098c-20.27-5.503-40.567-8.914-60.887-10.257Zm-39.625-103.98a6.37 6.37 0 0 1 6.367 6.367 6.36 6.36 0 0 1-6.367 6.371h-49.012c7.004 31.426 35.035 54.918 68.57 54.918 33.54 0 61.563-23.492 68.575-54.918h-49.012a6.37 6.37 0 0 1-6.371-6.371 6.364 6.364 0 0 1 6.37-6.367h50.645c.032-.871.067-1.739.067-2.617v-11.48h-50.711a6.37 6.37 0 0 1-6.371-6.372 6.364 6.364 0 0 1 6.37-6.367h50.712v-14.098h-50.711a6.37 6.37 0 1 1 0-12.738h50.71v-14.098h-50.71a6.37 6.37 0 1 1 0-12.738h50.71v-9.324c0-1.61-.073-3.2-.179-4.782h-50.531a6.37 6.37 0 1 1 0-12.738h48.516c-7.797-30.324-35.317-52.746-68.086-52.746-32.758 0-60.286 22.422-68.067 52.754h48.516a6.37 6.37 0 0 1 6.367 6.371 6.36 6.36 0 0 1-6.367 6.367h-50.531a72 72 0 0 0-.18 4.782v9.324h50.71a6.37 6.37 0 0 1 6.368 6.37 6.36 6.36 0 0 1-6.367 6.368h-50.711v14.098h50.71a6.37 6.37 0 0 1 6.368 6.37 6.36 6.36 0 0 1-6.367 6.368h-50.711v14.098h50.71a6.37 6.37 0 0 1 6.368 6.37 6.36 6.36 0 0 1-6.367 6.368h-50.711v11.48c0 .883.031 1.746.066 2.618h50.645Zm103.93-17.961v15.351c0 46.524-37.848 84.371-84.372 84.371s-84.378-37.855-84.378-84.378v-15.356h-14.094v15.356c0 54.293 44.172 98.468 98.465 98.468 54.296 0 98.468-44.175 98.468-98.468v-15.356h-14.097Zm0 0"/></g><path fill="#e67e22" d="M1895.36 606.504h-137.758a6.89 6.89 0 0 0-6.887 6.887v137.757a6.885 6.885 0 0 0 6.887 6.887h137.757a6.88 6.88 0 0 0 6.887-6.887V613.391a6.885 6.885 0 0 0-6.887-6.887m-6.887 137.758h-123.98v-123.98h123.98Zm0 0"/><g clip-path="url(#b)"><path fill="#e67e22" d="M1978.016 647.832a6.885 6.885 0 0 0 6.886-6.887 6.886 6.886 0 0 0-6.886-6.89h-34.442v-27.551h34.442a6.885 6.885 0 0 0 6.886-6.887c0-3.8-3.078-6.887-6.886-6.887h-34.442v-6.89c0-11.39-9.27-20.664-20.664-20.664h-6.887v-34.438c0-3.8-3.078-6.886-6.886-6.886a6.89 6.89 0 0 0-6.89 6.886v34.438h-27.552v-34.438c0-3.8-3.078-6.886-6.886-6.886a6.885 6.885 0 0 0-6.887 6.886v34.438h-27.55v-34.438a6.89 6.89 0 0 0-6.892-6.886 6.89 6.89 0 0 0-6.886 6.886v34.438h-27.551v-34.438a6.89 6.89 0 0 0-6.887-6.886 6.89 6.89 0 0 0-6.89 6.886v34.438h-27.551v-34.438a6.89 6.89 0 0 0-6.887-6.886 6.89 6.89 0 0 0-6.887 6.886v34.438h-6.89c-11.39 0-20.66 9.273-20.66 20.664v6.89h-34.442a6.89 6.89 0 0 0-6.887 6.887 6.89 6.89 0 0 0 6.887 6.887h34.442v27.55h-34.442a6.89 6.89 0 0 0-6.887 6.891 6.89 6.89 0 0 0 6.887 6.887h34.442v27.55h-34.442a6.89 6.89 0 0 0-6.887 6.888 6.89 6.89 0 0 0 6.887 6.89h34.442v27.55h-34.442a6.885 6.885 0 0 0-6.887 6.888 6.885 6.885 0 0 0 6.887 6.886h34.442v27.551h-34.442a6.89 6.89 0 0 0-6.887 6.89 6.885 6.885 0 0 0 6.887 6.888h34.442v6.886c0 11.395 9.27 20.664 20.66 20.664h6.89v34.438a6.886 6.886 0 0 0 6.887 6.89c3.8 0 6.887-3.078 6.887-6.89v-34.438h27.55v34.438a6.887 6.887 0 0 0 6.891 6.89 6.886 6.886 0 0 0 6.887-6.89v-34.438h27.55v34.438a6.886 6.886 0 0 0 6.887 6.89 6.887 6.887 0 0 0 6.891-6.89v-34.438h27.55v34.438a6.88 6.88 0 0 0 6.888 6.89 6.88 6.88 0 0 0 6.886-6.89v-34.438h27.551v34.438a6.884 6.884 0 0 0 6.89 6.89 6.88 6.88 0 0 0 6.887-6.89v-34.438h6.887c11.395 0 20.664-9.27 20.664-20.664v-6.886h34.442a6.88 6.88 0 0 0 6.886-6.887 6.883 6.883 0 0 0-6.886-6.89h-34.442v-27.552h34.442a6.88 6.88 0 0 0 6.886-6.886 6.88 6.88 0 0 0-6.886-6.887h-34.442v-27.55h34.442a6.886 6.886 0 0 0 6.886-6.891 6.885 6.885 0 0 0-6.886-6.887h-34.442v-27.551ZM1929.8 778.699a6.89 6.89 0 0 1-6.89 6.887h-192.86a6.893 6.893 0 0 1-6.887-6.887V585.84c0-3.792 3.094-6.886 6.887-6.886h192.86a6.896 6.896 0 0 1 6.89 6.887Zm0 0"/></g><g clip-path="url(#c)"><path fill="#e67e22" d="M283.086 524.023h452.387v18.098H283.086Zm0 0"/></g><path fill="#e67e22" d="M477.61 790.93h63.335v27.148H477.61Zm0 0"/><g clip-path="url(#d)"><path fill="#e67e22" d="M427.852 818.078h162.851v22.613H427.852Zm0 0"/></g><g clip-path="url(#e)"><path fill="#e67e22" d="M283.086 772.84h452.387v18.094H283.086Zm0 0"/></g><g clip-path="url(#f)"><path fill="#e67e22" d="M283.086 524.023h18.098V790.93h-18.098Zm0 0"/></g><path fill="#e67e22" d="M717.375 524.023h18.098V790.93h-18.098Zm284.477 102.219h-9.942v-9.941q0-1.537-.305-3.043a15.6 15.6 0 0 0-2.332-5.63 15.7 15.7 0 0 0-4.304-4.308 15.6 15.6 0 0 0-2.7-1.441 15.4 15.4 0 0 0-2.93-.89 15.3 15.3 0 0 0-3.042-.305h-17.04q-1.54 0-3.046.304-1.506.3-2.93.89-1.417.587-2.695 1.442c-.856.57-1.64 1.22-2.367 1.942a15.65 15.65 0 0 0-4.578 11.039v9.941h-9.942q-1.536 0-3.043.305c-1.008.2-1.98.496-2.93.89q-1.417.587-2.695 1.442c-.855.57-1.64 1.219-2.367 1.941a15.7 15.7 0 0 0-3.387 5.063 15.6 15.6 0 0 0-1.191 5.973v17.042a15.6 15.6 0 0 0 1.191 5.973 15.7 15.7 0 0 0 5.754 7.004q1.278.855 2.696 1.441a15.3 15.3 0 0 0 2.93.891q1.506.305 3.042.305h9.942v9.941q0 1.537.304 3.043c.2 1.008.496 1.98.89 2.93q.587 1.418 1.442 2.695c.57.856 1.22 1.64 1.942 2.367a15.7 15.7 0 0 0 5.063 3.387q1.422.587 2.929.887 1.506.304 3.047.304h17.039q1.536 0 3.043-.304 1.505-.3 2.93-.887a15.7 15.7 0 0 0 7.003-5.754q.855-1.277 1.442-2.695.591-1.425.89-2.93.305-1.507.305-3.043v-9.941h9.942q1.536 0 3.043-.305a15.3 15.3 0 0 0 2.93-.89 15.6 15.6 0 0 0 7.003-5.75q.854-1.277 1.445-2.696.587-1.425.891-2.93.3-1.507.3-3.043v-17.043a15.6 15.6 0 0 0-1.19-5.972 15.7 15.7 0 0 0-5.75-7.004 15.6 15.6 0 0 0-2.7-1.442 15.3 15.3 0 0 0-2.93-.89 15.3 15.3 0 0 0-3.042-.305m1.418 32.656q0 .282-.11.54-.105.262-.305.46a1.5 1.5 0 0 1-.46.309q-.263.106-.543.106h-17.04q-.702 0-1.386.136a7.3 7.3 0 0 0-1.332.406q-.646.264-1.227.657-.581.385-1.074.883a7 7 0 0 0-.883 1.074 7.2 7.2 0 0 0-1.062 2.559q-.136.683-.137 1.386v17.04a1.37 1.37 0 0 1-.414 1 1.4 1.4 0 0 1-1 .418h-17.04a1.42 1.42 0 0 1-1.003-.419 1.5 1.5 0 0 1-.309-.457 1.5 1.5 0 0 1-.105-.543v-17.039q-.001-.702-.137-1.387a7.2 7.2 0 0 0-1.062-2.558 7 7 0 0 0-.883-1.074 7 7 0 0 0-1.074-.883 7.2 7.2 0 0 0-2.559-1.062 7 7 0 0 0-1.387-.138H933.7q-.28 0-.543-.105a1.45 1.45 0 0 1-.765-.77 1.4 1.4 0 0 1-.11-.539v-17.043a1.4 1.4 0 0 1 .418-1q.2-.197.457-.308.263-.106.543-.106h17.04q.701 0 1.386-.136a7.2 7.2 0 0 0 2.559-1.063q.58-.385 1.074-.883.497-.493.883-1.074.392-.581.656-1.226c.18-.434.312-.875.406-1.332q.136-.684.137-1.387V616.3q0-.28.105-.542a1.43 1.43 0 0 1 1.313-.879h17.039q.28.005.543.11a1.45 1.45 0 0 1 .765.769c.07.176.11.355.106.543v17.039q.001.702.137 1.387c.093.457.226.898.406 1.332q.264.646.656 1.226.385.581.883 1.074.493.497 1.074.883.581.392 1.227.656.648.268 1.332.407.685.135 1.386.136h17.04q.28 0 .543.106c.171.074.328.176.46.308q.2.199.305.461.11.258.11.54Zm137.007 8.797q-1.161-.014-2.316.09-1.161.099-2.297.309-1.141.214-2.258.535-1.113.322-2.191.754a23.3 23.3 0 0 0-4.113 2.125 23 23 0 0 0-1.88 1.355q-.909.721-1.742 1.532a24 24 0 0 0-2.992 3.531 24 24 0 0 0-1.222 1.969c-.375.68-.715 1.37-1.024 2.082q-.464 1.06-.816 2.168-.357 1.101-.602 2.238a23 23 0 0 0-.535 4.598q-.024 1.16.07 2.316a24 24 0 0 0 .817 4.558 23.76 23.76 0 0 0 5.703 9.965q.8.84 1.684 1.59.877.758 1.832 1.422.948.667 1.96 1.234 1.01.573 2.07 1.04 1.062.468 2.165.832 1.102.362 2.234.613c.754.172 1.516.3 2.285.394.766.098 1.54.153 2.313.172 31.176-.574 32.367-46.086.855-47.422m-.578 33.227a9.4 9.4 0 0 1-3.597-.793 9.5 9.5 0 0 1-1.614-.906 9.4 9.4 0 0 1-2.562-2.648 9.2 9.2 0 0 1-.848-1.645 9.4 9.4 0 0 1-.676-3.621q.005-.933.2-1.84a9.51 9.51 0 0 1 9.297-7.578q.929.023 1.835.222a10 10 0 0 1 1.762.574q.85.374 1.613.907.761.527 1.41 1.195a9.5 9.5 0 0 1 1.996 3.094 9.4 9.4 0 0 1 .676 3.62 9.7 9.7 0 0 1-.199 1.84 9.3 9.3 0 0 1-.55 1.766 9.7 9.7 0 0 1-.883 1.63 9.6 9.6 0 0 1-2.613 2.594 9.6 9.6 0 0 1-3.403 1.405 9.4 9.4 0 0 1-1.844.184m-40.379-74.328c-31.418.265-31.96 46.836-.488 47.281.77-.004 1.531-.047 2.297-.125q1.143-.113 2.273-.344 1.125-.222 2.227-.562 1.102-.333 2.164-.778a24 24 0 0 0 2.078-.98 25 25 0 0 0 1.973-1.184 23 23 0 0 0 3.554-2.902 25 25 0 0 0 1.551-1.7c.488-.59.95-1.202 1.375-1.84q.644-.955 1.196-1.964.544-1.014.996-2.074a25 25 0 0 0 .789-2.156q.34-1.102.574-2.227a23.4 23.4 0 0 0 .406-6.863 24 24 0 0 0-.312-2.278 23.4 23.4 0 0 0-1.273-4.41 23.5 23.5 0 0 0-2.105-4.082 23 23 0 0 0-2.853-3.597 23.6 23.6 0 0 0-3.496-2.98 24 24 0 0 0-4.004-2.247 23.8 23.8 0 0 0-6.629-1.82 24 24 0 0 0-2.293-.168m-.699 33.078a9 9 0 0 1-1.809-.262 9.3 9.3 0 0 1-1.722-.601 9.5 9.5 0 0 1-1.578-.926 9.6 9.6 0 0 1-1.367-1.211 10 10 0 0 1-1.11-1.453 10 10 0 0 1-.808-1.637 9.5 9.5 0 0 1-.477-1.762 9.2 9.2 0 0 1-.133-1.824 9.5 9.5 0 0 1 .79-3.547 9.54 9.54 0 0 1 3.5-4.129 9.3 9.3 0 0 1 1.62-.843 9 9 0 0 1 1.754-.516 9.4 9.4 0 0 1 3.684.023 9.3 9.3 0 0 1 1.793.559 9.3 9.3 0 0 1 1.644.902q.78.533 1.438 1.211.654.677 1.168 1.469.511.792.851 1.672a9.4 9.4 0 0 1 .645 3.68 9.7 9.7 0 0 1-.23 1.863 9.44 9.44 0 0 1-2.777 4.813 9.35 9.35 0 0 1-3.184 1.952 9.4 9.4 0 0 1-3.692.567m82.547-33.078c-31.367.797-32.05 46.543-.332 47.281 31.16-.516 31.18-46.266.332-47.281m-.559 33.078a9.3 9.3 0 0 1-1.824-.227 9 9 0 0 1-1.75-.578 9 9 0 0 1-1.605-.906 9.3 9.3 0 0 1-1.395-1.2 9.2 9.2 0 0 1-1.14-1.445 9.7 9.7 0 0 1-.836-1.644 9.6 9.6 0 0 1-.5-1.774 9.3 9.3 0 0 1-.145-1.836 9.6 9.6 0 0 1 .211-1.828 9.4 9.4 0 0 1 1.457-3.363 9.5 9.5 0 0 1 2.629-2.558 9.5 9.5 0 0 1 1.633-.848 9.7 9.7 0 0 1 3.605-.676 9.4 9.4 0 0 1 3.574.805q.85.373 1.606.906a9.7 9.7 0 0 1 1.398 1.2 9.5 9.5 0 0 1 2.473 4.862q.163.91.145 1.836a9.3 9.3 0 0 1-.211 1.829 9.42 9.42 0 0 1-4.086 5.922 9.5 9.5 0 0 1-1.633.847 9.4 9.4 0 0 1-3.606.676m-40.992-26.477a26 26 0 0 0 2.317-.117q1.156-.119 2.293-.344 1.137-.227 2.246-.566a23 23 0 0 0 2.183-.781 24.3 24.3 0 0 0 4.09-2.172q.966-.644 1.867-1.375a24 24 0 0 0 1.727-1.55 23 23 0 0 0 1.562-1.712q.744-.89 1.395-1.851.65-.962 1.207-1.98.55-1.02 1.008-2.09a23.8 23.8 0 0 0 1.75-6.708q.128-1.154.144-2.312a24 24 0 0 0-.394-4.617 24 24 0 0 0-.532-2.258q-.316-1.112-.746-2.196a23 23 0 0 0-.953-2.109 24.3 24.3 0 0 0-2.504-3.898 25 25 0 0 0-1.523-1.747 23 23 0 0 0-1.688-1.593 23.6 23.6 0 0 0-3.793-2.656 23.8 23.8 0 0 0-6.468-2.493 24 24 0 0 0-2.282-.402q-1.154-.146-2.312-.176c-.774 0-1.547.043-2.316.117a23.864 23.864 0 0 0-21.332 21.13 25 25 0 0 0-.141 2.312 24.1 24.1 0 0 0 .922 6.87q.323 1.119.746 2.196a24 24 0 0 0 3.46 6.012q.722.908 1.524 1.746a24 24 0 0 0 1.684 1.594q.884.755 1.832 1.418a23.8 23.8 0 0 0 8.434 3.73q1.131.257 2.28.403c.77.093 1.54.156 2.313.175m-6.344-30.664a9.6 9.6 0 0 1 4.887-2.496 9.6 9.6 0 0 1 2.774-.097q1.395.151 2.683.695a9.54 9.54 0 0 1 4.23 3.496 9.54 9.54 0 0 1 1.622 5.242 10.04 10.04 0 0 1-1.738 5.258 10 10 0 0 1-2.625 2.629q-.776.526-1.633.906a10.1 10.1 0 0 1-3.625.836 9.64 9.64 0 0 1-5.274-1.719 9.64 9.64 0 0 1-3.453-4.343 9.5 9.5 0 0 1-.648-2.727 9.5 9.5 0 0 1 .16-2.8 9.6 9.6 0 0 1 .96-2.634 9.7 9.7 0 0 1 1.68-2.246m0 0"/><path fill="#e67e22" d="M1249.797 776.438c10.965-40.915 5.508-76.91-6.149-126.497-11.609-50.015-44.421-119.09-109.382-105.937-31.25 4.676-68.422 21.262-98.274 12.742-17.058-4.3-34.25-7.875-51.191-11.55C888.066 524.045 861.914 654.456 858 732.862c-2.422 52.48 24.324 95.961 80.754 65.508a231.3 231.3 0 0 0 46.941-34.816 77.7 77.7 0 0 1 15.184-11.688 77.6 77.6 0 0 1 17.582-7.617c37.184-9.352 80.84-8.266 111.293 20.813 28.535 28.777 97.36 74.523 120.043 11.375m-53.531 15.53c-42.907-12.902-65.317-58.585-108.782-64.175-39.46-6.207-80.5-3.957-111.425 25.336a217.8 217.8 0 0 1-43.996 32.723c-98.797 50.64-50.333-150.625-30.356-181.891 33.613-64.961 71.063-47.156 130.79-33.453 19.991 5.984 46.733 1.508 69.55-4.852 36.558-9.957 71.957-17.863 97.535 18.282 32.352 34.414 77.336 232.207-3.316 208.03m0 0"/><g fill="#e67e22" clip-path="url(#g)" transform="translate(299 292)"><path d="M11 25.148q-.375-.187.562-.375c.625-.125 2.46-.188 5.515-.188h33.438v140.828H13.812V27.96l-.938-1.125Q12.311 25.71 11 25.148m44.577-.563h25.547q4.032 0 6.094.188 8.418.563 15.625 5.156c4.812 3.055 8.719 6.89 11.719 11.516q6.733 10.3 6.359 22.093-.188 4.501-1.125 7.672-2.237 6.75-7.86 11.813-5.625 5.05-12.734 5.984-3 .563-3.187.75 0 .375 1.687.375 6.186 0 11.047 2.25 4.873 2.25 8.328 6.094 3.47 3.83 5.625 8.89c1.438 3.368 2.344 6.985 2.719 10.86q.937 11.424-4.125 21.344-3.924 8.425-10.953 14.406c-4.68 4-9.89 7-15.64 9q-2.238.938-4.298 1.406a34 34 0 0 1-3.75.656q-1.875.188-5.812.188H70.546l-14.969.187V139.57h9.172q3.748 0 6.078-.094 2.344-.094 3.657-.281 2.062-.187 4.875-1.5c1.125-.75 2.273-1.782 3.453-3.094 1.187-1.313 2.03-2.586 2.53-3.828q1.875-3.936 1.688-9.172-.187-5.25-2.062-9-.937-1.687-2.719-3.375c-1.18-1.125-2.265-1.93-3.265-2.422q-2.625-1.5-4.688-1.687-1.125-.188-3.469-.188h-15.25V77.398H68.86q2.25 0 3.187-.188c3.75-.875 6.648-2.804 8.703-5.797q3.094-4.5 2.156-10.312-.937-4.296-2.906-6.64c-1.305-1.563-2.828-2.72-4.578-3.47q-2.625-1.125-5.812-1.312c-2.118-.125-4.36-.187-6.735-.187h-7.297Zm89.694.75-1.5-.75H186.1v140.828h-38.015V28.898l-.563-1.313q-.75-1.5-2.25-2.25m58.618-.75h110.298v28.657H203.89Zm34.829 35.203-.938-.937h40.454v106.562h-37.829V75.054q0-13.201-.187-13.578-.187-.75-1.5-1.688m127.525-34.64q-.375-.187.563-.375c.625-.125 2.46-.188 5.515-.188h33.438v140.828h-36.703V27.96l-.938-1.125q-.562-1.125-1.875-1.687m44.578-.563h25.547q4.033 0 6.094.188 8.419.563 15.625 5.156c4.813 3.055 8.719 6.89 11.719 11.516q6.733 10.3 6.36 22.093-.188 4.501-1.126 7.672-2.237 6.75-7.86 11.813-5.625 5.05-12.734 5.984-3 .563-3.187.75 0 .375 1.687.375 6.186 0 11.047 2.25 4.874 2.25 8.328 6.094 3.47 3.83 5.625 8.89c1.438 3.368 2.344 6.985 2.72 10.86q.937 11.424-4.126 21.344c-2.617 5.617-6.265 10.418-10.953 14.406-4.68 4-9.89 7-15.64 9-1.493.625-2.922 1.094-4.297 1.406a34 34 0 0 1-3.75.656q-1.875.188-5.813.188h-10.297l-14.969.187V139.57h9.172q3.749 0 6.078-.094 2.344-.094 3.657-.281 2.063-.187 4.875-1.5c1.125-.75 2.273-1.782 3.453-3.094 1.187-1.313 2.031-2.586 2.531-3.828q1.875-3.936 1.688-9.172-.188-5.25-2.063-9-.937-1.687-2.719-3.375c-1.18-1.125-2.265-1.93-3.265-2.422q-2.625-1.5-4.688-1.687-1.125-.188-3.469-.188h-15.25V77.398h13.282q2.25 0 3.187-.188c3.75-.875 6.649-2.804 8.703-5.797q3.094-4.5 2.157-10.312-.937-4.296-2.907-6.64-1.954-2.345-4.578-3.47t-5.812-1.312q-3.174-.187-6.735-.187h-7.297Zm81.648.563q-.375-.187.374-.375c.625-.125 2.586-.188 5.891-.188h35.484l2.625 5.438a5228 5228 0 0 1 17.407 39.328q7.875 17.97 14.25 32.766l3.547 8.796v54.5h-35.579v-56l-6.734-13.671q-10.126-20.215-17.234-34.735c-4.743-9.676-8.547-17.695-11.422-24.062-.875-1.875-1.625-3.367-2.25-4.485q-.937-1.687-1.5-2.437-2.063-3.375-4.86-4.875m92.687 0c.375-.375 6.867-.563 19.484-.563h19.282l-3.188 5.813q-18.72 34.079-29.484 53.656c-7.18 13.043-11.64 21.434-13.39 25.172q-.75 1.687-.938 1.687-.188.001-5.813-14.046a5115 5115 0 0 0-4.766-12.063 682 682 0 0 0-3.28-8.156l-.75-2.438 3-6.547q1.125-2.437 2.812-6c.988-2.125 2.203-4.71 3.64-7.765 1.438-3.063 3.094-6.586 4.97-10.578q1.5-3.188 3-6.469c1-2.188 1.897-4.148 2.702-5.89a943 943 0 0 1 1.969-4.22zm91.577 0q-.375-.187.562-.375.936-.188 5.516-.188h33.437v140.828h-36.703V27.96l-.937-1.125q-.562-1.125-1.875-1.687m44.578-.563h25.547q4.031 0 6.094.188 8.419.563 15.625 5.156c4.812 3.055 8.718 6.89 11.718 11.516q6.734 10.3 6.36 22.093-.188 4.501-1.125 7.672c-1.493 4.5-4.11 8.438-7.86 11.813q-5.626 5.05-12.734 5.984-3 .563-3.188.75 0 .375 1.688.375 6.186 0 11.047 2.25c3.25 1.5 6.023 3.531 8.328 6.094q3.468 3.83 5.625 8.89c1.437 3.368 2.344 6.985 2.719 10.86q.937 11.424-4.125 21.344c-2.618 5.617-6.266 10.418-10.953 14.406q-7.018 6-15.641 9-2.236.938-4.297 1.406a34 34 0 0 1-3.75.656q-1.875.188-5.812.188H736.28l-14.97.187V139.57h9.173c2.5 0 4.523-.032 6.078-.094q2.343-.094 3.656-.281 2.062-.187 4.875-1.5 1.686-1.125 3.453-3.094c1.188-1.313 2.032-2.586 2.532-3.828q1.875-3.936 1.687-9.172-.187-5.25-2.062-9-.938-1.687-2.72-3.375-1.767-1.686-3.265-2.422-2.625-1.5-4.687-1.687-1.125-.188-3.47-.188h-15.249V77.398h13.281q2.25 0 3.188-.188c3.75-.875 6.648-2.804 8.703-5.797q3.093-4.5 2.156-10.312-.938-4.296-2.906-6.64c-1.305-1.563-2.828-2.72-4.578-3.47q-2.625-1.125-5.813-1.312-3.174-.187-6.734-.187h-7.297Zm89.694.75-1.5-.75h42.328v140.828h-38.016V28.898l-.562-1.313q-.75-1.5-2.25-2.25m58.619-.75h110.297v28.657H869.624Zm34.829 35.203-.938-.937h40.453v106.562H906.14V75.054q0-13.201-.187-13.578-.187-.75-1.5-1.688m127.713-34.64q-.375-.187.375-.375c.75-.125 3.523-.188 8.328-.188h20.703q30.516 0 30.89.375.375 1.876 3.938 18.547 0 .187.281 1.594c.188.93.406 1.953.656 3.078q.376 1.688.657 3.281.28 1.594.468 2.344 2.998 13.487 5.704 26.688 2.718 13.206 5.343 26.687.75 5.049 1.125 5.422l2.438-8.61c.5-1.874 1.117-4.46 1.86-7.765q1.124-4.97 2.624-12.094a128 128 0 0 0 2.625-9.906q1.125-5.062 2.063-10.125a89 89 0 0 0 1.687-6.734q.75-2.813 1.5-6.282.75-3.466 1.313-6.64 4.483-18.359 4.484-18.547l.375-1.313h54.875v140.828h-36.516V51.93l-2.062 7.86q-5.625 22.113-10.969 46.265-5.332 24.16-10.375 50.563l-1.687 8.796h-32.407l-1.125-6.375a3246 3246 0 0 0-4.484-25.734 2452 2452 0 0 0-3.75-20.516 4915 4915 0 0 0-5.25-27.718l-2.984-15.532q-.937-4.875-1.5-7.78a798 798 0 0 0-.75-3.845q0-.733-.094.766-.094 1.486-.094 7.672.187 3 .094 7.031a384 384 0 0 0-.094 8.89c-.125 3.243-.187 7.235-.187 11.985v71.156h-37.266V55.867q0-14.984-.187-19.485-.375-8.983-.75-9.734-.375-.937-1.875-1.5m179.026-.188q5.06 0 17.422-.187 10.67 0 30.422-.094 19.764-.094 52.156-.094v29.032h-59.172v82.765h64.61v.938q0-.188-.282 1.031-.28 1.218-.75 3.281a117 117 0 0 0-.937 4.594c-.313 1.68-.656 3.328-1.031 4.953q-2.812 13.296-3 13.672-.189.562-47.938.562h-47.562V97.43q0-34.265-.094-50.828c-.063-11.05-.219-17.016-.469-17.89q-.562-2.814-3.375-3.75m47 54.688h50v28.64h-50Zm75.848-54.69q-.188 0 .375-.187c.625-.125 2.523-.188 5.703-.188h34.562v140.828h-38.015V27.773l-.75-1.125q-1.125-1.125-1.875-1.688m54.312-1.312a72 72 0 0 1 4.39-.281q2.532-.095 5.907.093 7.857.375 14.406 1.688 6.56 1.313 12.172 4.125 5.625 2.812 10.406 7.219 4.78 4.393 9.266 11.125c5.625 8.617 9.492 18.418 11.61 29.406q2.811 14.987 1.5 29.031-1.313 13.3-6.376 24.344c-3.367 7.367-7.796 13.73-13.296 19.094q-8.238 8.045-19.375 12.453-11.144 4.406-24.813 4.406c-2.742 0-5.234-.156-7.484-.469a39.6 39.6 0 0 1-6.375-1.406q-.75-.189-.75-13.297v-13.11h6q9.356 0 15.718-2.812c4.25-1.875 7.688-4.523 10.313-7.953 2.625-3.437 4.523-7.586 5.703-12.453 1.188-4.875 1.906-10.367 2.156-16.484q.375-6.92-.28-15.063-.658-8.154-3.08-14.703-1.687-4.873-4.78-8.047a26.4 26.4 0 0 0-6.938-5.156q-3.83-1.969-8.234-2.906-4.408-.937-9.078-1.125l-7.5-.188V25.335l3-.75q3.375-.937 5.812-.937m90.821 1.687-1.5-.75H1520v140.828h-38.016V28.898l-.562-1.313q-.75-1.5-2.25-2.25m92.698-.187q-.562-.187.376-.375c.875-.125 3.523-.188 7.953-.188h45.797l1.312 3.75q.921 3.939 3.36 11.797 1.5 4.875 2.437 8.25.938 3.361 1.313 5.235.187 1.126 2.812 9.734 2.623 8.424 3.922 13.484a1268 1268 0 0 1 3.937 13.485q1.875 6.549 3.75 12.547l.938 3.28a78 78 0 0 0 1.5 4.579c.5 1.75.867 3.156 1.11 4.219q.375 1.593.562 2.156.187.375.469 1.687c.187.868.53 1.985 1.03 3.36q1.5 4.313 1.688 6 .188.562.563 2.062t.844 3.094a55 55 0 0 0 .937 2.89q.47 1.314.469 1.688.187.188 1.312 4.313.188.75.844 3.093.656 2.33 1.406 4.672.75 2.344 1.313 4.313t.75 2.156c0 .5.18 1.367.547 2.61q.562 1.875.937 2.437.187 1.125.375 1.969.187.843.375 1.406.188.188-.562.375t-5.157.187h-30.984l-.75-2.25q-.375-.937-.75-2.343-.375-1.407-.75-3.282c0-.242-.125-.796-.375-1.671q-.361-1.312-.922-3.375a44 44 0 0 1-1.219-3.844 276 276 0 0 1-.843-3.281l-2.25-8.985h-42.328l-.375 1.313q-1.688 6-3.094 11.437a662 662 0 0 0-2.516 10.094l-1.687 6.187h-19.11q-7.486-.187-11.89-.28c-2.93-.063-4.391-.157-4.391-.282a1171 1171 0 0 0 10.297-34.172 2395 2395 0 0 0 9.547-34.562c0-.25.25-1.211.75-2.891q.75-2.532 1.125-4.031a97 97 0 0 0 1.687-5.61q.75-2.812 1.5-5.812.75-2.623 1.594-5.797a241 241 0 0 1 1.953-6.938q.188-.562.563-2.156.374-1.593.843-3.375a114 114 0 0 1 .938-3.36q.468-1.593.469-1.968.375-.937.75-2.25t.937-3.187q.937-3.734 1.125-4.297.375-.938.844-3.188t1.406-5.625q1.5-4.483 1.5-5.61 0-3.375-2.812-4.874m31.641 40.265q-2.237-8.983-2.61-8.984-.375 1.111-1.687 7.11-.375 1.5-.937 4.03-.562 2.518-1.5 6.266-.375 1.125-1.313 5.25a425 425 0 0 1-2.062 8.61q-1.5 5.25-3 11.422-1.862 7.5-1.86 8.062-.002.361 12.922.36h12.922l-.375-1.86q-1.5-5.998-4.125-16.016-2.625-10.011-6.375-24.25m0 0"/></g></svg>